<svg width="631" height="620" viewBox="0 0 631 620" fill="none" xmlns="http://www.w3.org/2000/svg">
<path d="M289.108 180.649L443.935 40.4377C454.141 31.2819 464.181 21.6681 474.465 12.6712C477.359 10.1398 485.601 1.48991 488.713 0.834273C494.999 -0.489231 513.578 0.207886 519.405 0.669715C511.544 7.37017 503.481 15.103 495.759 22.0723L432.707 79.3855L362.436 142.993C355.822 149.087 347.005 156.396 340.95 162.336L343.124 162.596C353.579 153.104 368.796 141.661 379.91 132.48L476.918 53.4929L521.186 17.3619C526.761 12.8082 536.312 4.09152 541.921 0.636532C552.943 0.232322 563.979 0.190862 575.001 0.511698C570.531 4.96412 559.142 13.704 553.886 17.9552L515.136 49.4822L399.99 143.558L401.417 144.222C450.758 108.138 499.901 71.7827 548.844 35.1581L579.122 12.593C581.972 10.4655 592.802 1.9858 594.981 1.36944C602.41 -0.733236 623.289 0.0590232 630.915 0.654862L371.013 193.297L267.193 270.265C250.282 282.798 231.711 297.42 214.609 309.423L514.499 531.822L591.951 589.158C603.763 597.94 619.915 609.207 630.64 618.614C620.744 618.308 605.256 619.312 595.819 617.509C593.239 617.016 580.326 607.059 577.214 604.763C564.149 595.182 551.154 585.508 538.228 575.744L429.276 494.766C418.756 486.857 408.253 479.641 397.855 471.47L396.921 472.993C406.992 480.366 419.756 491.335 429.617 499.289C451.229 516.675 472.684 534.253 493.969 552.037C520.702 574.142 548.648 595.592 574.874 618.312C564.564 618.426 552.044 618.854 542.026 618.173C530.445 609.534 516.454 597.705 505.131 588.389L454.843 547.309C418.464 517.578 379.735 487.485 344.25 456.903L342.818 457.833C351.379 466.096 360.31 473.478 368.94 481.47L476.94 579.72C490.918 592.475 505.554 605.077 519.069 618.238C512.408 618.426 493.319 619.338 487.526 617.177C485.282 616.339 474.016 605.684 471.309 603.235L438.251 573.173L291.399 439.866L290.417 441.521C293.898 444.31 300 451.019 303.361 454.468L329.568 481.479L417.211 570.715C422.327 575.831 460.619 614.192 461.692 617.121L461.26 617.819C457.628 619.203 439.085 618.343 434.117 618.247C428.591 613.065 422.619 606.54 417.263 601.075L380.586 563.565L296.325 477.79C279.609 460.718 262.395 442.599 245.49 425.876C244.823 426.186 244.313 426.343 243.771 426.793C246.063 429.071 247.985 431.394 250.078 433.838C265.214 451.517 280.238 469.331 295.41 486.975L408.009 618.138C398.916 618.334 389.819 618.47 380.726 618.539C372.397 610.014 360.904 595.954 352.95 586.517C342.919 574.714 332.809 562.976 322.622 551.303L198.441 406.429L197.505 407.285C206.784 420.708 217.089 433.821 226.764 447.125L311.955 563.307C325.257 581.353 339.387 599.691 352.295 617.959C346.097 618.552 332.111 618.683 325.95 617.937C319.418 609.377 312.651 599.682 306.178 590.943L235.755 494.989L194.444 439.076C184.289 425.605 169.433 406.744 160.499 392.889L159.411 393.775C176.088 420.577 192.53 447.527 208.735 474.621L252.428 545.738L279.662 590.218C284.602 598.189 292.742 610.346 296.447 618.548C288.384 618.605 280.32 618.465 272.264 618.125C259.681 599.267 246.337 576.333 234.53 556.821L193.353 489.506C172.869 455.646 151.364 422.401 131.298 388.166L129.372 389.213C133.564 396.97 137.985 406.822 141.836 414.889L158.468 449.146L201.607 536.615C211.05 556.009 220.278 575.416 230.063 594.649C233.765 601.926 238.604 610.97 241.201 618.504C234.497 618.055 225.257 618.291 218.368 618.264C213.449 609.949 208.302 598.469 203.999 589.586L182.257 545.013L118.214 415.256C110.904 400.598 103.646 384.874 96.1351 370.426L94.8867 370.88C97.8908 377.336 101.744 388.423 104.248 395.277L116.11 427.356C127.803 458.706 139.286 490.131 150.56 521.634L173.107 582.684C176.421 591.585 184.37 610.887 185.667 619.155C182.408 618.094 167.161 618.286 163.121 618.238C161.797 612.904 159.523 607.216 157.623 602.013L148.93 578.206L116.993 491.567L83.0145 399.502L70.4549 365.127C69.3531 362.167 69.2239 359.561 67.5677 355.323C69.3662 371.111 77.5187 399.659 81.4208 416.041L117.797 563.77C119.879 572.618 122.011 581.449 124.195 590.271C126.478 599.219 129.551 609.648 130.28 618.74C123.509 618.439 116.325 618.404 109.519 618.26C104.579 597.006 98.412 574.142 93.1039 552.836L66.4297 443.371L49.9335 376.642C48.1917 369.688 45.6988 356.052 43.2839 350.368C45.2496 362.503 46.5749 377.868 48.0966 390.326L58.6727 476.411L70.2969 570.663C72.1927 586.783 74.5233 602.397 75.5779 618.614C68.6167 618.426 61.6742 618.417 54.6536 618.203C51.7101 599.883 49.4537 576.39 47.2393 557.624L35.44 462.565L27.4857 396.774C26.3992 387.956 23.2732 370.19 23.7255 361.722C22.5399 360.731 23.1864 360.989 21.8004 360.753C20.3293 362.097 20.5598 363.891 20.5227 365.825C21.0801 374.673 20.8396 384.019 20.933 392.941L21.0278 456.663L20.9806 618.518C14.3603 618.181 7.07648 618.435 0.394614 618.539C-0.161954 610.132 0.0746416 600.071 0.0737686 591.515V548.514L0 415.312L0.0685332 0.264189C7.37419 0.16772 13.8814 0.199587 21.1635 0.599432L20.9819 157.95C21.4844 176.851 20.8296 196.557 21.0391 215.557C21.1945 229.658 20.2996 238.423 22.4242 252.538C24.9792 251.79 22.3666 252.412 23.9839 250.006C26.0735 229.579 29.1602 207.716 31.6685 187.214L45.4993 74.4044L50.5485 33.3068C51.9341 22.642 53.7526 10.9487 54.5344 0.259819C61.5961 0.223589 68.6577 0.33621 75.715 0.596808C75.1431 13.0627 72.5493 29.2036 71.0128 41.78C68.1513 66.8353 65.1079 91.8693 61.8824 116.881L49.132 219.512C47.616 231.331 46.395 247.622 44.4603 258.785L44.7703 261.191L45.3919 261.546C46.512 258.191 47.9407 250.434 48.812 246.684C50.8524 238.234 52.959 229.801 55.132 221.385C65.8151 178.688 76.2685 135.935 86.4928 93.1265L101.06 33.6482C102.858 26.7434 104.61 19.8265 106.316 12.8982C107.214 9.27205 108.771 3.79208 109.032 0.221414C116.422 0.144151 123.812 0.19478 131.199 0.372877C128.388 10.4725 126.259 20.5598 123.738 30.7227L104.063 110.592C95.8811 143.061 87.8778 175.574 80.0536 208.131C78.4524 214.762 67.2604 258.241 68.147 261.772C69.3269 256.617 74.6097 242.708 76.513 237.223C84.6877 213.662 93.7037 190.262 102.331 166.838L142.097 58.9646C149.333 39.3084 156.015 19.661 163.818 0.234948C171.242 0.142408 178.668 0.242804 186.088 0.535703C183.645 8.21744 179.915 17.65 177.069 25.2746L161.304 67.6385L118.619 184.525L103.628 225.177C100.048 234.798 96.38 243.423 93.471 253.352C96.3246 248.409 98.3932 243.142 101.057 238.008C110.529 219.687 119.704 201.212 128.576 182.592L189.763 58.0505L208.019 20.9876C211.095 14.6687 214.537 6.04492 218.363 0.497724C226.248 0.291691 233.272 0.184745 241.139 0.625622C238.661 6.87298 234.483 14.7686 231.422 20.9226L216.087 52.1048L164.094 158.373C156.287 174.066 148.566 189.801 140.932 205.578C136.538 214.591 131.346 224.571 127.449 233.702L128.338 235.478C132.41 227.718 138.234 218.618 142.851 211.025C151.89 196.123 161.017 181.275 170.231 166.48L230.878 67.4207C244.316 45.6352 259.144 22.6424 271.963 0.611648C280.654 0.272042 287.868 0.176453 296.549 0.556218C293.579 6.86905 285.498 18.7937 281.553 25.2309L253.637 71.1371L160.614 222.843L161.373 224.422C175.039 204.633 192.271 182.323 206.714 162.797L295.064 42.6124C305.381 28.4629 315.75 15.1667 325.904 0.761819C334.625 0.0149467 343.836 0.298678 352.631 0.394711C348.707 4.85499 341.592 15.2457 337.912 20.3145L309.302 59.398C287.79 88.2537 266.478 117.258 245.367 146.408C230.737 166.327 215.894 185.716 201.567 205.956L202.451 207.865C211.82 195.44 224.541 181.498 234.842 169.537L297.65 96.6535L351.641 33.4919L366.443 16.3837C371.123 10.8706 375.344 5.28714 380.722 0.441855C389.919 0.173836 399.121 0.247602 408.314 0.663161C403.229 5.54729 396.576 13.9951 391.748 19.3738C380.211 32.2391 369.102 46.2699 357.778 59.2409L279.395 150.482C267.352 164.624 252.658 180.837 241.193 195.31L241.218 197.349L370.333 65.4206L411.344 23.5879C417.564 17.2449 427.757 6.22345 434.213 0.732565C442.9 -0.267047 454.699 0.289944 463.447 0.608597C454.228 9.50078 443.537 21.1692 434.314 30.4843L343.683 122.863C325.443 141.569 306.818 161.265 288.072 179.362L289.108 180.649Z" fill="white"/>
</svg>
